<mxfile host="app.diagrams.net" modified="2024-05-28T16:13:01.703Z" agent="Mozilla/5.0 (Macintosh; Intel Mac OS X 10_15_7) AppleWebKit/537.36 (KHTML, like Gecko) Chrome/125.0.0.0 Safari/537.36" etag="XwLFEpaFYDS8Frf3oSHy" version="24.4.9" type="device">
  <diagram name="Page-1" id="_XJORy7DzCKB0HkPgccP">
    <mxGraphModel dx="676" dy="519" grid="1" gridSize="10" guides="1" tooltips="1" connect="1" arrows="1" fold="1" page="1" pageScale="1" pageWidth="850" pageHeight="1100" math="0" shadow="0">
      <root>
        <mxCell id="0" />
        <mxCell id="1" parent="0" />
        <mxCell id="jMxNf0ltURhrq-Y9TUZJ-2" style="edgeStyle=orthogonalEdgeStyle;rounded=0;orthogonalLoop=1;jettySize=auto;html=1;endArrow=block;endFill=1;" parent="1" source="jMxNf0ltURhrq-Y9TUZJ-1" target="jMxNf0ltURhrq-Y9TUZJ-4" edge="1">
          <mxGeometry relative="1" as="geometry">
            <mxPoint x="205" y="270" as="targetPoint" />
          </mxGeometry>
        </mxCell>
        <mxCell id="jMxNf0ltURhrq-Y9TUZJ-1" value="" style="ellipse;whiteSpace=wrap;html=1;aspect=fixed;" parent="1" vertex="1">
          <mxGeometry x="180" y="170" width="50" height="50" as="geometry" />
        </mxCell>
        <mxCell id="jMxNf0ltURhrq-Y9TUZJ-5" style="edgeStyle=orthogonalEdgeStyle;rounded=0;orthogonalLoop=1;jettySize=auto;html=1;exitX=0.5;exitY=1;exitDx=0;exitDy=0;" parent="1" source="jMxNf0ltURhrq-Y9TUZJ-4" target="jMxNf0ltURhrq-Y9TUZJ-6" edge="1">
          <mxGeometry relative="1" as="geometry">
            <mxPoint x="205" y="370" as="targetPoint" />
          </mxGeometry>
        </mxCell>
        <mxCell id="jMxNf0ltURhrq-Y9TUZJ-4" value="Token type" style="rounded=0;whiteSpace=wrap;html=1;" parent="1" vertex="1">
          <mxGeometry x="145" y="270" width="120" height="60" as="geometry" />
        </mxCell>
        <mxCell id="jMxNf0ltURhrq-Y9TUZJ-8" style="edgeStyle=orthogonalEdgeStyle;rounded=0;orthogonalLoop=1;jettySize=auto;html=1;entryX=0;entryY=0.5;entryDx=0;entryDy=0;" parent="1" source="jMxNf0ltURhrq-Y9TUZJ-6" target="jMxNf0ltURhrq-Y9TUZJ-10" edge="1">
          <mxGeometry relative="1" as="geometry">
            <mxPoint x="310" y="400" as="targetPoint" />
          </mxGeometry>
        </mxCell>
        <mxCell id="jMxNf0ltURhrq-Y9TUZJ-9" value="True" style="edgeLabel;html=1;align=center;verticalAlign=middle;resizable=0;points=[];" parent="jMxNf0ltURhrq-Y9TUZJ-8" vertex="1" connectable="0">
          <mxGeometry x="-0.2364" y="3" relative="1" as="geometry">
            <mxPoint as="offset" />
          </mxGeometry>
        </mxCell>
        <mxCell id="jMxNf0ltURhrq-Y9TUZJ-19" style="edgeStyle=orthogonalEdgeStyle;rounded=0;orthogonalLoop=1;jettySize=auto;html=1;entryX=0.5;entryY=0;entryDx=0;entryDy=0;" parent="1" source="jMxNf0ltURhrq-Y9TUZJ-6" target="jMxNf0ltURhrq-Y9TUZJ-15" edge="1">
          <mxGeometry relative="1" as="geometry" />
        </mxCell>
        <mxCell id="jMxNf0ltURhrq-Y9TUZJ-20" value="false" style="edgeLabel;html=1;align=center;verticalAlign=middle;resizable=0;points=[];" parent="jMxNf0ltURhrq-Y9TUZJ-19" vertex="1" connectable="0">
          <mxGeometry x="-0.3562" y="-1" relative="1" as="geometry">
            <mxPoint as="offset" />
          </mxGeometry>
        </mxCell>
        <mxCell id="jMxNf0ltURhrq-Y9TUZJ-6" value="Number" style="rhombus;whiteSpace=wrap;html=1;" parent="1" vertex="1">
          <mxGeometry x="165" y="370" width="80" height="60" as="geometry" />
        </mxCell>
        <mxCell id="jMxNf0ltURhrq-Y9TUZJ-11" style="edgeStyle=orthogonalEdgeStyle;rounded=0;orthogonalLoop=1;jettySize=auto;html=1;exitX=1;exitY=0.5;exitDx=0;exitDy=0;" parent="1" source="jMxNf0ltURhrq-Y9TUZJ-10" target="jMxNf0ltURhrq-Y9TUZJ-12" edge="1">
          <mxGeometry relative="1" as="geometry">
            <mxPoint x="480" y="400" as="targetPoint" />
          </mxGeometry>
        </mxCell>
        <mxCell id="jMxNf0ltURhrq-Y9TUZJ-10" value="Number Literal" style="rounded=0;whiteSpace=wrap;html=1;" parent="1" vertex="1">
          <mxGeometry x="320" y="370" width="120" height="60" as="geometry" />
        </mxCell>
        <mxCell id="jMxNf0ltURhrq-Y9TUZJ-61" style="edgeStyle=orthogonalEdgeStyle;rounded=0;orthogonalLoop=1;jettySize=auto;html=1;exitX=1;exitY=0.5;exitDx=0;exitDy=0;entryX=0.5;entryY=0;entryDx=0;entryDy=0;" parent="1" source="jMxNf0ltURhrq-Y9TUZJ-12" target="jMxNf0ltURhrq-Y9TUZJ-65" edge="1">
          <mxGeometry relative="1" as="geometry">
            <mxPoint x="620" y="400.42857142857156" as="targetPoint" />
          </mxGeometry>
        </mxCell>
        <mxCell id="jMxNf0ltURhrq-Y9TUZJ-12" value="Break" style="rounded=0;whiteSpace=wrap;html=1;" parent="1" vertex="1">
          <mxGeometry x="490" y="380" width="80" height="40" as="geometry" />
        </mxCell>
        <mxCell id="jMxNf0ltURhrq-Y9TUZJ-13" style="edgeStyle=orthogonalEdgeStyle;rounded=0;orthogonalLoop=1;jettySize=auto;html=1;entryX=0;entryY=0.5;entryDx=0;entryDy=0;" parent="1" source="jMxNf0ltURhrq-Y9TUZJ-15" target="jMxNf0ltURhrq-Y9TUZJ-17" edge="1">
          <mxGeometry relative="1" as="geometry">
            <mxPoint x="310" y="500" as="targetPoint" />
          </mxGeometry>
        </mxCell>
        <mxCell id="jMxNf0ltURhrq-Y9TUZJ-14" value="True" style="edgeLabel;html=1;align=center;verticalAlign=middle;resizable=0;points=[];" parent="jMxNf0ltURhrq-Y9TUZJ-13" vertex="1" connectable="0">
          <mxGeometry x="-0.2364" y="3" relative="1" as="geometry">
            <mxPoint as="offset" />
          </mxGeometry>
        </mxCell>
        <mxCell id="jMxNf0ltURhrq-Y9TUZJ-58" style="edgeStyle=orthogonalEdgeStyle;rounded=0;orthogonalLoop=1;jettySize=auto;html=1;exitX=0.5;exitY=1;exitDx=0;exitDy=0;entryX=0.5;entryY=0;entryDx=0;entryDy=0;" parent="1" source="jMxNf0ltURhrq-Y9TUZJ-15" target="jMxNf0ltURhrq-Y9TUZJ-42" edge="1">
          <mxGeometry relative="1" as="geometry" />
        </mxCell>
        <mxCell id="jMxNf0ltURhrq-Y9TUZJ-78" value="false" style="edgeLabel;html=1;align=center;verticalAlign=middle;resizable=0;points=[];" parent="jMxNf0ltURhrq-Y9TUZJ-58" vertex="1" connectable="0">
          <mxGeometry x="-0.1518" y="-1" relative="1" as="geometry">
            <mxPoint as="offset" />
          </mxGeometry>
        </mxCell>
        <mxCell id="jMxNf0ltURhrq-Y9TUZJ-15" value="String" style="rhombus;whiteSpace=wrap;html=1;" parent="1" vertex="1">
          <mxGeometry x="165" y="470" width="80" height="60" as="geometry" />
        </mxCell>
        <mxCell id="jMxNf0ltURhrq-Y9TUZJ-16" style="edgeStyle=orthogonalEdgeStyle;rounded=0;orthogonalLoop=1;jettySize=auto;html=1;exitX=1;exitY=0.5;exitDx=0;exitDy=0;" parent="1" source="jMxNf0ltURhrq-Y9TUZJ-17" target="jMxNf0ltURhrq-Y9TUZJ-18" edge="1">
          <mxGeometry relative="1" as="geometry">
            <mxPoint x="480" y="500" as="targetPoint" />
          </mxGeometry>
        </mxCell>
        <mxCell id="jMxNf0ltURhrq-Y9TUZJ-17" value="String Literal" style="rounded=0;whiteSpace=wrap;html=1;" parent="1" vertex="1">
          <mxGeometry x="320" y="470" width="120" height="60" as="geometry" />
        </mxCell>
        <mxCell id="jMxNf0ltURhrq-Y9TUZJ-62" style="edgeStyle=orthogonalEdgeStyle;rounded=0;orthogonalLoop=1;jettySize=auto;html=1;exitX=1;exitY=0.5;exitDx=0;exitDy=0;" parent="1" source="jMxNf0ltURhrq-Y9TUZJ-18" edge="1">
          <mxGeometry relative="1" as="geometry">
            <mxPoint x="620" y="500.42857142857156" as="targetPoint" />
          </mxGeometry>
        </mxCell>
        <mxCell id="jMxNf0ltURhrq-Y9TUZJ-18" value="Break" style="rounded=0;whiteSpace=wrap;html=1;" parent="1" vertex="1">
          <mxGeometry x="490" y="480" width="80" height="40" as="geometry" />
        </mxCell>
        <mxCell id="jMxNf0ltURhrq-Y9TUZJ-40" style="edgeStyle=orthogonalEdgeStyle;rounded=0;orthogonalLoop=1;jettySize=auto;html=1;entryX=0;entryY=0.5;entryDx=0;entryDy=0;" parent="1" source="jMxNf0ltURhrq-Y9TUZJ-42" target="jMxNf0ltURhrq-Y9TUZJ-44" edge="1">
          <mxGeometry relative="1" as="geometry">
            <mxPoint x="305" y="590" as="targetPoint" />
          </mxGeometry>
        </mxCell>
        <mxCell id="jMxNf0ltURhrq-Y9TUZJ-41" value="True" style="edgeLabel;html=1;align=center;verticalAlign=middle;resizable=0;points=[];" parent="jMxNf0ltURhrq-Y9TUZJ-40" vertex="1" connectable="0">
          <mxGeometry x="-0.2364" y="3" relative="1" as="geometry">
            <mxPoint as="offset" />
          </mxGeometry>
        </mxCell>
        <mxCell id="jMxNf0ltURhrq-Y9TUZJ-59" style="edgeStyle=orthogonalEdgeStyle;rounded=0;orthogonalLoop=1;jettySize=auto;html=1;exitX=0.5;exitY=1;exitDx=0;exitDy=0;entryX=0.5;entryY=0;entryDx=0;entryDy=0;" parent="1" source="jMxNf0ltURhrq-Y9TUZJ-42" target="jMxNf0ltURhrq-Y9TUZJ-48" edge="1">
          <mxGeometry relative="1" as="geometry" />
        </mxCell>
        <mxCell id="jMxNf0ltURhrq-Y9TUZJ-79" value="false" style="edgeLabel;html=1;align=center;verticalAlign=middle;resizable=0;points=[];" parent="jMxNf0ltURhrq-Y9TUZJ-59" vertex="1" connectable="0">
          <mxGeometry x="-0.1666" y="-2" relative="1" as="geometry">
            <mxPoint as="offset" />
          </mxGeometry>
        </mxCell>
        <mxCell id="jMxNf0ltURhrq-Y9TUZJ-42" value="Boolean" style="rhombus;whiteSpace=wrap;html=1;" parent="1" vertex="1">
          <mxGeometry x="165" y="560" width="80" height="60" as="geometry" />
        </mxCell>
        <mxCell id="jMxNf0ltURhrq-Y9TUZJ-43" style="edgeStyle=orthogonalEdgeStyle;rounded=0;orthogonalLoop=1;jettySize=auto;html=1;exitX=1;exitY=0.5;exitDx=0;exitDy=0;" parent="1" source="jMxNf0ltURhrq-Y9TUZJ-44" target="jMxNf0ltURhrq-Y9TUZJ-45" edge="1">
          <mxGeometry relative="1" as="geometry">
            <mxPoint x="475" y="590" as="targetPoint" />
          </mxGeometry>
        </mxCell>
        <mxCell id="jMxNf0ltURhrq-Y9TUZJ-44" value="Boolean Literal" style="rounded=0;whiteSpace=wrap;html=1;" parent="1" vertex="1">
          <mxGeometry x="315" y="560" width="120" height="60" as="geometry" />
        </mxCell>
        <mxCell id="jMxNf0ltURhrq-Y9TUZJ-63" style="edgeStyle=orthogonalEdgeStyle;rounded=0;orthogonalLoop=1;jettySize=auto;html=1;exitX=1;exitY=0.5;exitDx=0;exitDy=0;entryX=0;entryY=0.5;entryDx=0;entryDy=0;" parent="1" source="jMxNf0ltURhrq-Y9TUZJ-45" target="jMxNf0ltURhrq-Y9TUZJ-68" edge="1">
          <mxGeometry relative="1" as="geometry">
            <mxPoint x="610" y="590.4285714285716" as="targetPoint" />
          </mxGeometry>
        </mxCell>
        <mxCell id="jMxNf0ltURhrq-Y9TUZJ-45" value="Break" style="rounded=0;whiteSpace=wrap;html=1;" parent="1" vertex="1">
          <mxGeometry x="485" y="570" width="80" height="40" as="geometry" />
        </mxCell>
        <mxCell id="jMxNf0ltURhrq-Y9TUZJ-46" style="edgeStyle=orthogonalEdgeStyle;rounded=0;orthogonalLoop=1;jettySize=auto;html=1;entryX=0;entryY=0.5;entryDx=0;entryDy=0;" parent="1" source="jMxNf0ltURhrq-Y9TUZJ-48" target="jMxNf0ltURhrq-Y9TUZJ-50" edge="1">
          <mxGeometry relative="1" as="geometry">
            <mxPoint x="305" y="680" as="targetPoint" />
          </mxGeometry>
        </mxCell>
        <mxCell id="jMxNf0ltURhrq-Y9TUZJ-47" value="True" style="edgeLabel;html=1;align=center;verticalAlign=middle;resizable=0;points=[];" parent="jMxNf0ltURhrq-Y9TUZJ-46" vertex="1" connectable="0">
          <mxGeometry x="-0.2364" y="3" relative="1" as="geometry">
            <mxPoint as="offset" />
          </mxGeometry>
        </mxCell>
        <mxCell id="jMxNf0ltURhrq-Y9TUZJ-60" style="edgeStyle=orthogonalEdgeStyle;rounded=0;orthogonalLoop=1;jettySize=auto;html=1;entryX=0.5;entryY=0;entryDx=0;entryDy=0;" parent="1" source="jMxNf0ltURhrq-Y9TUZJ-48" target="jMxNf0ltURhrq-Y9TUZJ-54" edge="1">
          <mxGeometry relative="1" as="geometry" />
        </mxCell>
        <mxCell id="jMxNf0ltURhrq-Y9TUZJ-80" value="false" style="edgeLabel;html=1;align=center;verticalAlign=middle;resizable=0;points=[];" parent="jMxNf0ltURhrq-Y9TUZJ-60" vertex="1" connectable="0">
          <mxGeometry x="-0.2138" relative="1" as="geometry">
            <mxPoint as="offset" />
          </mxGeometry>
        </mxCell>
        <mxCell id="jMxNf0ltURhrq-Y9TUZJ-48" value="Null" style="rhombus;whiteSpace=wrap;html=1;" parent="1" vertex="1">
          <mxGeometry x="165" y="650" width="80" height="60" as="geometry" />
        </mxCell>
        <mxCell id="jMxNf0ltURhrq-Y9TUZJ-49" style="edgeStyle=orthogonalEdgeStyle;rounded=0;orthogonalLoop=1;jettySize=auto;html=1;exitX=1;exitY=0.5;exitDx=0;exitDy=0;" parent="1" source="jMxNf0ltURhrq-Y9TUZJ-50" target="jMxNf0ltURhrq-Y9TUZJ-51" edge="1">
          <mxGeometry relative="1" as="geometry">
            <mxPoint x="475" y="680" as="targetPoint" />
          </mxGeometry>
        </mxCell>
        <mxCell id="jMxNf0ltURhrq-Y9TUZJ-50" value="Null Literal" style="rounded=0;whiteSpace=wrap;html=1;" parent="1" vertex="1">
          <mxGeometry x="315" y="650" width="120" height="60" as="geometry" />
        </mxCell>
        <mxCell id="jMxNf0ltURhrq-Y9TUZJ-70" style="edgeStyle=orthogonalEdgeStyle;rounded=0;orthogonalLoop=1;jettySize=auto;html=1;entryX=0;entryY=0.5;entryDx=0;entryDy=0;" parent="1" source="jMxNf0ltURhrq-Y9TUZJ-51" target="jMxNf0ltURhrq-Y9TUZJ-69" edge="1">
          <mxGeometry relative="1" as="geometry" />
        </mxCell>
        <mxCell id="jMxNf0ltURhrq-Y9TUZJ-51" value="Break" style="rounded=0;whiteSpace=wrap;html=1;" parent="1" vertex="1">
          <mxGeometry x="485" y="660" width="75" height="40" as="geometry" />
        </mxCell>
        <mxCell id="jMxNf0ltURhrq-Y9TUZJ-52" style="edgeStyle=orthogonalEdgeStyle;rounded=0;orthogonalLoop=1;jettySize=auto;html=1;entryX=0;entryY=0.5;entryDx=0;entryDy=0;" parent="1" source="jMxNf0ltURhrq-Y9TUZJ-54" target="jMxNf0ltURhrq-Y9TUZJ-56" edge="1">
          <mxGeometry relative="1" as="geometry">
            <mxPoint x="305" y="780" as="targetPoint" />
          </mxGeometry>
        </mxCell>
        <mxCell id="jMxNf0ltURhrq-Y9TUZJ-53" value="True" style="edgeLabel;html=1;align=center;verticalAlign=middle;resizable=0;points=[];" parent="jMxNf0ltURhrq-Y9TUZJ-52" vertex="1" connectable="0">
          <mxGeometry x="-0.2364" y="3" relative="1" as="geometry">
            <mxPoint as="offset" />
          </mxGeometry>
        </mxCell>
        <mxCell id="jMxNf0ltURhrq-Y9TUZJ-76" style="edgeStyle=orthogonalEdgeStyle;rounded=0;orthogonalLoop=1;jettySize=auto;html=1;exitX=0.5;exitY=1;exitDx=0;exitDy=0;" parent="1" source="jMxNf0ltURhrq-Y9TUZJ-54" edge="1">
          <mxGeometry relative="1" as="geometry">
            <mxPoint x="205.28571428571433" y="880.0000000000002" as="targetPoint" />
          </mxGeometry>
        </mxCell>
        <mxCell id="jMxNf0ltURhrq-Y9TUZJ-81" value="false&lt;div&gt;&lt;br&gt;&lt;/div&gt;" style="edgeLabel;html=1;align=center;verticalAlign=middle;resizable=0;points=[];" parent="jMxNf0ltURhrq-Y9TUZJ-76" vertex="1" connectable="0">
          <mxGeometry x="-0.3613" y="-2" relative="1" as="geometry">
            <mxPoint as="offset" />
          </mxGeometry>
        </mxCell>
        <mxCell id="jMxNf0ltURhrq-Y9TUZJ-54" value="Undefined" style="rhombus;whiteSpace=wrap;html=1;" parent="1" vertex="1">
          <mxGeometry x="165" y="750" width="80" height="60" as="geometry" />
        </mxCell>
        <mxCell id="jMxNf0ltURhrq-Y9TUZJ-55" style="edgeStyle=orthogonalEdgeStyle;rounded=0;orthogonalLoop=1;jettySize=auto;html=1;exitX=1;exitY=0.5;exitDx=0;exitDy=0;" parent="1" source="jMxNf0ltURhrq-Y9TUZJ-56" target="jMxNf0ltURhrq-Y9TUZJ-57" edge="1">
          <mxGeometry relative="1" as="geometry">
            <mxPoint x="475" y="780" as="targetPoint" />
          </mxGeometry>
        </mxCell>
        <mxCell id="jMxNf0ltURhrq-Y9TUZJ-56" value="Undefined Literal" style="rounded=0;whiteSpace=wrap;html=1;" parent="1" vertex="1">
          <mxGeometry x="315" y="750" width="120" height="60" as="geometry" />
        </mxCell>
        <mxCell id="jMxNf0ltURhrq-Y9TUZJ-73" style="edgeStyle=orthogonalEdgeStyle;rounded=0;orthogonalLoop=1;jettySize=auto;html=1;exitX=1;exitY=0.5;exitDx=0;exitDy=0;entryX=0;entryY=0.5;entryDx=0;entryDy=0;" parent="1" source="jMxNf0ltURhrq-Y9TUZJ-57" target="jMxNf0ltURhrq-Y9TUZJ-72" edge="1">
          <mxGeometry relative="1" as="geometry" />
        </mxCell>
        <mxCell id="jMxNf0ltURhrq-Y9TUZJ-57" value="Break" style="rounded=0;whiteSpace=wrap;html=1;" parent="1" vertex="1">
          <mxGeometry x="485" y="760" width="80" height="40" as="geometry" />
        </mxCell>
        <mxCell id="jMxNf0ltURhrq-Y9TUZJ-67" style="edgeStyle=orthogonalEdgeStyle;rounded=0;orthogonalLoop=1;jettySize=auto;html=1;exitX=0.5;exitY=1;exitDx=0;exitDy=0;entryX=0.5;entryY=0;entryDx=0;entryDy=0;" parent="1" source="jMxNf0ltURhrq-Y9TUZJ-65" target="jMxNf0ltURhrq-Y9TUZJ-68" edge="1">
          <mxGeometry relative="1" as="geometry">
            <mxPoint x="635" y="580" as="targetPoint" />
          </mxGeometry>
        </mxCell>
        <mxCell id="jMxNf0ltURhrq-Y9TUZJ-65" value="" style="rhombus;whiteSpace=wrap;html=1;" parent="1" vertex="1">
          <mxGeometry x="620" y="485" width="30" height="30" as="geometry" />
        </mxCell>
        <mxCell id="jMxNf0ltURhrq-Y9TUZJ-68" value="" style="rhombus;whiteSpace=wrap;html=1;" parent="1" vertex="1">
          <mxGeometry x="620" y="575" width="30" height="30" as="geometry" />
        </mxCell>
        <mxCell id="jMxNf0ltURhrq-Y9TUZJ-74" style="edgeStyle=orthogonalEdgeStyle;rounded=0;orthogonalLoop=1;jettySize=auto;html=1;exitX=0.5;exitY=1;exitDx=0;exitDy=0;entryX=0.5;entryY=0;entryDx=0;entryDy=0;" parent="1" source="jMxNf0ltURhrq-Y9TUZJ-69" target="jMxNf0ltURhrq-Y9TUZJ-72" edge="1">
          <mxGeometry relative="1" as="geometry" />
        </mxCell>
        <mxCell id="jMxNf0ltURhrq-Y9TUZJ-69" value="" style="rhombus;whiteSpace=wrap;html=1;" parent="1" vertex="1">
          <mxGeometry x="620" y="665" width="30" height="30" as="geometry" />
        </mxCell>
        <mxCell id="jMxNf0ltURhrq-Y9TUZJ-71" style="edgeStyle=orthogonalEdgeStyle;rounded=0;orthogonalLoop=1;jettySize=auto;html=1;exitX=0.5;exitY=1;exitDx=0;exitDy=0;entryX=0.513;entryY=-0.127;entryDx=0;entryDy=0;entryPerimeter=0;" parent="1" source="jMxNf0ltURhrq-Y9TUZJ-68" target="jMxNf0ltURhrq-Y9TUZJ-69" edge="1">
          <mxGeometry relative="1" as="geometry" />
        </mxCell>
        <mxCell id="jMxNf0ltURhrq-Y9TUZJ-75" style="edgeStyle=orthogonalEdgeStyle;rounded=0;orthogonalLoop=1;jettySize=auto;html=1;exitX=0.5;exitY=1;exitDx=0;exitDy=0;entryX=1;entryY=0.5;entryDx=0;entryDy=0;" parent="1" source="jMxNf0ltURhrq-Y9TUZJ-72" target="jMxNf0ltURhrq-Y9TUZJ-77" edge="1">
          <mxGeometry relative="1" as="geometry">
            <mxPoint x="635.2857142857143" y="929.9999999999998" as="targetPoint" />
          </mxGeometry>
        </mxCell>
        <mxCell id="jMxNf0ltURhrq-Y9TUZJ-72" value="" style="rhombus;whiteSpace=wrap;html=1;" parent="1" vertex="1">
          <mxGeometry x="620" y="765" width="30" height="30" as="geometry" />
        </mxCell>
        <mxCell id="jMxNf0ltURhrq-Y9TUZJ-77" value="" style="ellipse;html=1;shape=endState;fillColor=#000000;strokeColor=#ff0000;" parent="1" vertex="1">
          <mxGeometry x="190" y="880" width="30" height="30" as="geometry" />
        </mxCell>
        <mxCell id="jMxNf0ltURhrq-Y9TUZJ-83" style="edgeStyle=orthogonalEdgeStyle;rounded=0;orthogonalLoop=1;jettySize=auto;html=1;endArrow=block;endFill=1;" parent="1" source="jMxNf0ltURhrq-Y9TUZJ-84" target="jMxNf0ltURhrq-Y9TUZJ-85" edge="1">
          <mxGeometry relative="1" as="geometry">
            <mxPoint x="1100" y="250" as="targetPoint" />
          </mxGeometry>
        </mxCell>
        <mxCell id="jMxNf0ltURhrq-Y9TUZJ-84" value="" style="ellipse;whiteSpace=wrap;html=1;aspect=fixed;" parent="1" vertex="1">
          <mxGeometry x="1075" y="150" width="50" height="50" as="geometry" />
        </mxCell>
        <mxCell id="jMxNf0ltURhrq-Y9TUZJ-86" style="edgeStyle=orthogonalEdgeStyle;rounded=0;orthogonalLoop=1;jettySize=auto;html=1;" parent="1" source="jMxNf0ltURhrq-Y9TUZJ-85" target="jMxNf0ltURhrq-Y9TUZJ-87" edge="1">
          <mxGeometry relative="1" as="geometry">
            <mxPoint x="1100" y="380" as="targetPoint" />
          </mxGeometry>
        </mxCell>
        <mxCell id="jMxNf0ltURhrq-Y9TUZJ-85" value="Token" style="rounded=0;whiteSpace=wrap;html=1;" parent="1" vertex="1">
          <mxGeometry x="1040" y="250" width="120" height="60" as="geometry" />
        </mxCell>
        <mxCell id="jMxNf0ltURhrq-Y9TUZJ-90" style="edgeStyle=orthogonalEdgeStyle;rounded=0;orthogonalLoop=1;jettySize=auto;html=1;" parent="1" source="jMxNf0ltURhrq-Y9TUZJ-87" target="jMxNf0ltURhrq-Y9TUZJ-105" edge="1">
          <mxGeometry relative="1" as="geometry">
            <mxPoint x="1290" y="420" as="targetPoint" />
          </mxGeometry>
        </mxCell>
        <mxCell id="jMxNf0ltURhrq-Y9TUZJ-91" value="false" style="edgeLabel;html=1;align=center;verticalAlign=middle;resizable=0;points=[];" parent="jMxNf0ltURhrq-Y9TUZJ-90" vertex="1" connectable="0">
          <mxGeometry x="-0.1916" y="-4" relative="1" as="geometry">
            <mxPoint y="-4" as="offset" />
          </mxGeometry>
        </mxCell>
        <mxCell id="jMxNf0ltURhrq-Y9TUZJ-87" value="Validate Identifier" style="rhombus;whiteSpace=wrap;html=1;" parent="1" vertex="1">
          <mxGeometry x="1040" y="380" width="120" height="80" as="geometry" />
        </mxCell>
        <mxCell id="jMxNf0ltURhrq-Y9TUZJ-96" style="edgeStyle=orthogonalEdgeStyle;rounded=0;orthogonalLoop=1;jettySize=auto;html=1;" parent="1" source="jMxNf0ltURhrq-Y9TUZJ-95" edge="1">
          <mxGeometry relative="1" as="geometry">
            <mxPoint x="1105" y="720" as="targetPoint" />
          </mxGeometry>
        </mxCell>
        <mxCell id="jMxNf0ltURhrq-Y9TUZJ-95" value="Generate next Token" style="rounded=0;whiteSpace=wrap;html=1;" parent="1" vertex="1">
          <mxGeometry x="1045" y="620" width="120" height="60" as="geometry" />
        </mxCell>
        <mxCell id="jMxNf0ltURhrq-Y9TUZJ-101" style="edgeStyle=orthogonalEdgeStyle;rounded=0;orthogonalLoop=1;jettySize=auto;html=1;exitX=0.5;exitY=1;exitDx=0;exitDy=0;entryX=0.5;entryY=0;entryDx=0;entryDy=0;" parent="1" source="jMxNf0ltURhrq-Y9TUZJ-97" target="jMxNf0ltURhrq-Y9TUZJ-100" edge="1">
          <mxGeometry relative="1" as="geometry" />
        </mxCell>
        <mxCell id="9DgjI2oOG2Q77YtC4Hsv-30" value="" style="edgeStyle=orthogonalEdgeStyle;rounded=0;orthogonalLoop=1;jettySize=auto;html=1;" parent="1" source="jMxNf0ltURhrq-Y9TUZJ-97" target="jMxNf0ltURhrq-Y9TUZJ-100" edge="1">
          <mxGeometry relative="1" as="geometry" />
        </mxCell>
        <mxCell id="9DgjI2oOG2Q77YtC4Hsv-31" value="true" style="edgeLabel;html=1;align=center;verticalAlign=middle;resizable=0;points=[];" parent="9DgjI2oOG2Q77YtC4Hsv-30" vertex="1" connectable="0">
          <mxGeometry x="-0.48" y="-2" relative="1" as="geometry">
            <mxPoint as="offset" />
          </mxGeometry>
        </mxCell>
        <mxCell id="9DgjI2oOG2Q77YtC4Hsv-37" style="edgeStyle=orthogonalEdgeStyle;rounded=0;orthogonalLoop=1;jettySize=auto;html=1;exitX=1;exitY=0.5;exitDx=0;exitDy=0;entryX=0.5;entryY=1;entryDx=0;entryDy=0;" parent="1" source="jMxNf0ltURhrq-Y9TUZJ-97" target="jMxNf0ltURhrq-Y9TUZJ-107" edge="1">
          <mxGeometry relative="1" as="geometry" />
        </mxCell>
        <mxCell id="9DgjI2oOG2Q77YtC4Hsv-38" value="false" style="edgeLabel;html=1;align=center;verticalAlign=middle;resizable=0;points=[];" parent="9DgjI2oOG2Q77YtC4Hsv-37" vertex="1" connectable="0">
          <mxGeometry x="-0.459" y="-1" relative="1" as="geometry">
            <mxPoint as="offset" />
          </mxGeometry>
        </mxCell>
        <mxCell id="jMxNf0ltURhrq-Y9TUZJ-97" value="next token&amp;nbsp;&lt;div&gt;type is &quot;=&quot;&lt;/div&gt;" style="rhombus;whiteSpace=wrap;html=1;" parent="1" vertex="1">
          <mxGeometry x="1045" y="720" width="120" height="60" as="geometry" />
        </mxCell>
        <mxCell id="jMxNf0ltURhrq-Y9TUZJ-102" style="edgeStyle=orthogonalEdgeStyle;rounded=0;orthogonalLoop=1;jettySize=auto;html=1;" parent="1" source="jMxNf0ltURhrq-Y9TUZJ-100" edge="1">
          <mxGeometry relative="1" as="geometry">
            <mxPoint x="1105" y="930" as="targetPoint" />
          </mxGeometry>
        </mxCell>
        <mxCell id="jMxNf0ltURhrq-Y9TUZJ-100" value="Generate next Token" style="rounded=0;whiteSpace=wrap;html=1;" parent="1" vertex="1">
          <mxGeometry x="1045" y="840" width="120" height="60" as="geometry" />
        </mxCell>
        <mxCell id="jMxNf0ltURhrq-Y9TUZJ-108" style="edgeStyle=orthogonalEdgeStyle;rounded=0;orthogonalLoop=1;jettySize=auto;html=1;exitX=0.5;exitY=1;exitDx=0;exitDy=0;entryX=0.5;entryY=1;entryDx=0;entryDy=0;" parent="1" source="jMxNf0ltURhrq-Y9TUZJ-103" target="jMxNf0ltURhrq-Y9TUZJ-107" edge="1">
          <mxGeometry relative="1" as="geometry" />
        </mxCell>
        <mxCell id="jMxNf0ltURhrq-Y9TUZJ-103" value="init = new Expression()" style="rounded=0;whiteSpace=wrap;html=1;" parent="1" vertex="1">
          <mxGeometry x="1027.5" y="930" width="155" height="60" as="geometry" />
        </mxCell>
        <mxCell id="jMxNf0ltURhrq-Y9TUZJ-106" style="edgeStyle=orthogonalEdgeStyle;rounded=0;orthogonalLoop=1;jettySize=auto;html=1;" parent="1" source="jMxNf0ltURhrq-Y9TUZJ-105" edge="1">
          <mxGeometry relative="1" as="geometry">
            <mxPoint x="1450" y="557.5" as="targetPoint" />
          </mxGeometry>
        </mxCell>
        <mxCell id="jMxNf0ltURhrq-Y9TUZJ-105" value="Throw error" style="rounded=0;whiteSpace=wrap;html=1;" parent="1" vertex="1">
          <mxGeometry x="1300" y="540" width="90" height="35" as="geometry" />
        </mxCell>
        <mxCell id="jMxNf0ltURhrq-Y9TUZJ-107" value="" style="ellipse;html=1;shape=endState;fillColor=#000000;strokeColor=#ff0000;" parent="1" vertex="1">
          <mxGeometry x="1450" y="543" width="30" height="30" as="geometry" />
        </mxCell>
        <mxCell id="9DgjI2oOG2Q77YtC4Hsv-12" value="&lt;h1 style=&quot;margin-top: 0px;&quot;&gt;&lt;div style=&quot;color: #f8f8f2;background-color: #191a2e;font-family: Fira code, monospace, Menlo, Monaco, &#39;Courier New&#39;, monospace;font-weight: normal;font-size: 12px;line-height: 18px;white-space: pre;&quot;&gt;&lt;div&gt;&lt;span style=&quot;color: #7f848e;&quot;&gt;    type: &#39;VariableDeclaration&#39;,&lt;/span&gt;&lt;/div&gt;&lt;div&gt;&lt;span style=&quot;color: #7f848e;&quot;&gt;//       declarations: [&lt;/span&gt;&lt;/div&gt;&lt;div&gt;&lt;span style=&quot;color: #7f848e;&quot;&gt;//         {&lt;/span&gt;&lt;/div&gt;&lt;div&gt;&lt;span style=&quot;color: #7f848e;&quot;&gt;//           type: &#39;VariableDeclarator&#39;,&lt;/span&gt;&lt;/div&gt;&lt;div&gt;&lt;span style=&quot;color: #7f848e;&quot;&gt;//           id: {&lt;/span&gt;&lt;/div&gt;&lt;div&gt;&lt;span style=&quot;color: #7f848e;&quot;&gt;//             type: &#39;Identifier&#39;,&lt;/span&gt;&lt;/div&gt;&lt;div&gt;&lt;span style=&quot;color: #7f848e;&quot;&gt;//             name: &#39;bi_7871n_a&#39;&lt;/span&gt;&lt;/div&gt;&lt;div&gt;&lt;span style=&quot;color: #7f848e;&quot;&gt;//           },&lt;/span&gt;&lt;/div&gt;&lt;div&gt;&lt;span style=&quot;color: #7f848e;&quot;&gt;//           init: {&lt;/span&gt;&lt;/div&gt;&lt;div&gt;&lt;span style=&quot;color: #7f848e;&quot;&gt;//             type: &#39;NumericLiteral&#39;,&lt;/span&gt;&lt;/div&gt;&lt;div&gt;&lt;span style=&quot;color: #7f848e;&quot;&gt;//             value: 1,&lt;/span&gt;&lt;/div&gt;&lt;div&gt;&lt;span style=&quot;color: #7f848e;&quot;&gt;//             extra: {&lt;/span&gt;&lt;/div&gt;&lt;div&gt;&lt;span style=&quot;color: #7f848e;&quot;&gt;//               rawValue: 1,&lt;/span&gt;&lt;/div&gt;&lt;div&gt;&lt;span style=&quot;color: #7f848e;&quot;&gt;//               raw: &#39;1&#39;&lt;/span&gt;&lt;/div&gt;&lt;div&gt;&lt;span style=&quot;color: #7f848e;&quot;&gt;//             },&lt;/span&gt;&lt;/div&gt;&lt;div&gt;&lt;span style=&quot;color: #7f848e;&quot;&gt;//             start: 18,&lt;/span&gt;&lt;/div&gt;&lt;div&gt;&lt;span style=&quot;color: #7f848e;&quot;&gt;//             end: 19&lt;/span&gt;&lt;/div&gt;&lt;div&gt;&lt;span style=&quot;color: #7f848e;&quot;&gt;//           }&lt;/span&gt;&lt;/div&gt;&lt;div&gt;&lt;span style=&quot;color: #7f848e;&quot;&gt;//         }&lt;/span&gt;&lt;/div&gt;&lt;div&gt;&lt;span style=&quot;color: #7f848e;&quot;&gt;//       ],&lt;/span&gt;&lt;/div&gt;&lt;div&gt;&lt;span style=&quot;color: #7f848e;&quot;&gt;//       kind: &#39;let&#39;&lt;/span&gt;&lt;/div&gt;&lt;/div&gt;&lt;/h1&gt;" style="text;html=1;whiteSpace=wrap;overflow=hidden;rounded=0;" parent="1" vertex="1">
          <mxGeometry x="1720" y="110" width="310" height="400" as="geometry" />
        </mxCell>
        <mxCell id="9DgjI2oOG2Q77YtC4Hsv-14" style="edgeStyle=orthogonalEdgeStyle;rounded=0;orthogonalLoop=1;jettySize=auto;html=1;entryX=0.5;entryY=0;entryDx=0;entryDy=0;" parent="1" source="9DgjI2oOG2Q77YtC4Hsv-13" target="9DgjI2oOG2Q77YtC4Hsv-15" edge="1">
          <mxGeometry relative="1" as="geometry">
            <mxPoint x="2345" y="230" as="targetPoint" />
          </mxGeometry>
        </mxCell>
        <mxCell id="9DgjI2oOG2Q77YtC4Hsv-13" value="khai báo tên = &quot;Viên Huỳnh&quot;" style="rounded=1;whiteSpace=wrap;html=1;" parent="1" vertex="1">
          <mxGeometry x="2260" y="180" width="170" height="50" as="geometry" />
        </mxCell>
        <mxCell id="9DgjI2oOG2Q77YtC4Hsv-16" style="edgeStyle=orthogonalEdgeStyle;rounded=0;orthogonalLoop=1;jettySize=auto;html=1;" parent="1" source="9DgjI2oOG2Q77YtC4Hsv-15" target="9DgjI2oOG2Q77YtC4Hsv-17" edge="1">
          <mxGeometry relative="1" as="geometry">
            <mxPoint x="2345" y="340" as="targetPoint" />
          </mxGeometry>
        </mxCell>
        <mxCell id="9DgjI2oOG2Q77YtC4Hsv-15" value="Variable Decalration" style="rounded=1;whiteSpace=wrap;html=1;" parent="1" vertex="1">
          <mxGeometry x="2260" y="260" width="170" height="50" as="geometry" />
        </mxCell>
        <mxCell id="9DgjI2oOG2Q77YtC4Hsv-17" value="Variable Decalrator" style="rounded=1;whiteSpace=wrap;html=1;" parent="1" vertex="1">
          <mxGeometry x="2260" y="330" width="170" height="50" as="geometry" />
        </mxCell>
        <mxCell id="9DgjI2oOG2Q77YtC4Hsv-25" style="edgeStyle=orthogonalEdgeStyle;rounded=0;orthogonalLoop=1;jettySize=auto;html=1;exitX=0.5;exitY=1;exitDx=0;exitDy=0;entryX=0.5;entryY=0;entryDx=0;entryDy=0;" parent="1" source="9DgjI2oOG2Q77YtC4Hsv-18" target="9DgjI2oOG2Q77YtC4Hsv-24" edge="1">
          <mxGeometry relative="1" as="geometry" />
        </mxCell>
        <mxCell id="9DgjI2oOG2Q77YtC4Hsv-18" value="Init" style="rounded=1;whiteSpace=wrap;html=1;" parent="1" vertex="1">
          <mxGeometry x="2400" y="450" width="170" height="50" as="geometry" />
        </mxCell>
        <mxCell id="9DgjI2oOG2Q77YtC4Hsv-23" style="edgeStyle=orthogonalEdgeStyle;rounded=0;orthogonalLoop=1;jettySize=auto;html=1;exitX=0.5;exitY=1;exitDx=0;exitDy=0;entryX=0.5;entryY=0;entryDx=0;entryDy=0;" parent="1" source="9DgjI2oOG2Q77YtC4Hsv-19" target="9DgjI2oOG2Q77YtC4Hsv-22" edge="1">
          <mxGeometry relative="1" as="geometry" />
        </mxCell>
        <mxCell id="9DgjI2oOG2Q77YtC4Hsv-19" value="ID" style="rounded=1;whiteSpace=wrap;html=1;" parent="1" vertex="1">
          <mxGeometry x="2125" y="450" width="170" height="50" as="geometry" />
        </mxCell>
        <mxCell id="9DgjI2oOG2Q77YtC4Hsv-20" style="edgeStyle=orthogonalEdgeStyle;rounded=0;orthogonalLoop=1;jettySize=auto;html=1;entryX=0.429;entryY=0.025;entryDx=0;entryDy=0;entryPerimeter=0;" parent="1" source="9DgjI2oOG2Q77YtC4Hsv-17" target="9DgjI2oOG2Q77YtC4Hsv-19" edge="1">
          <mxGeometry relative="1" as="geometry" />
        </mxCell>
        <mxCell id="9DgjI2oOG2Q77YtC4Hsv-21" style="edgeStyle=orthogonalEdgeStyle;rounded=0;orthogonalLoop=1;jettySize=auto;html=1;entryX=0.5;entryY=0;entryDx=0;entryDy=0;exitX=0.5;exitY=1;exitDx=0;exitDy=0;" parent="1" source="9DgjI2oOG2Q77YtC4Hsv-17" target="9DgjI2oOG2Q77YtC4Hsv-18" edge="1">
          <mxGeometry relative="1" as="geometry">
            <mxPoint x="2355" y="400" as="sourcePoint" />
            <mxPoint x="2208" y="461" as="targetPoint" />
          </mxGeometry>
        </mxCell>
        <mxCell id="9DgjI2oOG2Q77YtC4Hsv-22" value="Identifier (tên)" style="rounded=1;whiteSpace=wrap;html=1;align=center;" parent="1" vertex="1">
          <mxGeometry x="2125" y="523" width="165" height="47" as="geometry" />
        </mxCell>
        <mxCell id="9DgjI2oOG2Q77YtC4Hsv-40" style="edgeStyle=orthogonalEdgeStyle;rounded=0;orthogonalLoop=1;jettySize=auto;html=1;entryX=0.5;entryY=0;entryDx=0;entryDy=0;" parent="1" source="9DgjI2oOG2Q77YtC4Hsv-24" target="9DgjI2oOG2Q77YtC4Hsv-39" edge="1">
          <mxGeometry relative="1" as="geometry" />
        </mxCell>
        <mxCell id="9DgjI2oOG2Q77YtC4Hsv-24" value="Expression" style="rounded=1;whiteSpace=wrap;html=1;" parent="1" vertex="1">
          <mxGeometry x="2400" y="520" width="170" height="50" as="geometry" />
        </mxCell>
        <mxCell id="yeYnOP1-rdqouKl3zzN8-3" style="edgeStyle=orthogonalEdgeStyle;rounded=0;orthogonalLoop=1;jettySize=auto;html=1;exitX=0.5;exitY=1;exitDx=0;exitDy=0;entryX=0.5;entryY=0;entryDx=0;entryDy=0;" edge="1" parent="1" source="9DgjI2oOG2Q77YtC4Hsv-32" target="jMxNf0ltURhrq-Y9TUZJ-95">
          <mxGeometry relative="1" as="geometry" />
        </mxCell>
        <mxCell id="9DgjI2oOG2Q77YtC4Hsv-32" value="id = identifier" style="rounded=0;whiteSpace=wrap;html=1;" parent="1" vertex="1">
          <mxGeometry x="1040" y="523" width="130" height="37" as="geometry" />
        </mxCell>
        <mxCell id="9DgjI2oOG2Q77YtC4Hsv-35" style="edgeStyle=orthogonalEdgeStyle;rounded=0;orthogonalLoop=1;jettySize=auto;html=1;entryX=0.451;entryY=0.002;entryDx=0;entryDy=0;entryPerimeter=0;" parent="1" source="jMxNf0ltURhrq-Y9TUZJ-87" target="9DgjI2oOG2Q77YtC4Hsv-32" edge="1">
          <mxGeometry relative="1" as="geometry" />
        </mxCell>
        <mxCell id="9DgjI2oOG2Q77YtC4Hsv-36" value="true" style="edgeLabel;html=1;align=center;verticalAlign=middle;resizable=0;points=[];" parent="9DgjI2oOG2Q77YtC4Hsv-35" vertex="1" connectable="0">
          <mxGeometry x="0.5668" y="1" relative="1" as="geometry">
            <mxPoint as="offset" />
          </mxGeometry>
        </mxCell>
        <mxCell id="9DgjI2oOG2Q77YtC4Hsv-39" value="String Literal (Viên Huỳnh)" style="rounded=1;whiteSpace=wrap;html=1;" parent="1" vertex="1">
          <mxGeometry x="2400" y="590" width="170" height="50" as="geometry" />
        </mxCell>
      </root>
    </mxGraphModel>
  </diagram>
</mxfile>
